<svg width="219" height="227" viewBox="0 0 219 227" fill="none" xmlns="http://www.w3.org/2000/svg">
<g clip-path="url(#clip0_24_974)">
<rect width="218.434" height="225.825" transform="translate(0.458984 0.5625)" fill="#1C5CFF"/>
<circle cx="114.193" cy="172.415" r="90.6862" fill="#3D74FF"/>
<path d="M175.82 152.875C175.82 169.352 169.274 185.155 157.623 196.806C145.972 208.457 130.17 215.003 113.692 215.003C97.2152 215.003 81.4129 208.457 69.7617 196.806C58.1105 185.155 51.5649 169.352 51.5649 152.875L78.1346 152.875C78.1346 162.306 81.8808 171.35 88.5492 178.018C95.2176 184.687 104.262 188.433 113.692 188.433C123.123 188.433 132.167 184.687 138.836 178.018C145.504 171.35 149.25 162.306 149.25 152.875H175.82Z" fill="#779DFF"/>
<g clip-path="url(#clip1_24_974)">
<rect width="204.474" height="211.392" transform="translate(0.459473 15.3438)" fill="#1C5CFF"/>
<circle cx="88.747" cy="158.036" r="103.068" fill="#3D74FF"/>
<path d="M49.7304 226.24C49.7304 210.816 55.8577 196.024 66.7642 185.117C77.6708 174.211 92.4632 168.083 107.887 168.083C123.312 168.083 138.104 174.211 149.011 185.117C159.917 196.024 166.044 210.816 166.044 226.24L107.887 226.24L49.7304 226.24Z" fill="#779DFF"/>
</g>
</g>
<defs>
<clipPath id="clip0_24_974">
<rect width="218.434" height="225.825" fill="white" transform="translate(0.458984 0.5625)"/>
</clipPath>
<clipPath id="clip1_24_974">
<rect width="204.474" height="211.392" fill="white" transform="translate(0.459473 15.3438)"/>
</clipPath>
</defs>
</svg>
