<svg width="526" height="301" viewBox="0 0 526 301" fill="none" xmlns="http://www.w3.org/2000/svg">
<circle cx="358.544" cy="150.942" r="262.086" transform="rotate(-30 358.544 150.942)" fill="#3D74FF"/>
<path d="M459.086 394.133C420.524 371.869 392.416 335.144 380.947 292.039C369.477 248.933 375.584 202.977 397.926 164.281C420.267 125.584 457.013 97.3166 500.078 85.6969C543.144 74.0773 589.002 80.0571 627.564 102.321L591.538 164.719C569.467 151.977 543.221 148.554 518.573 155.205C493.925 161.855 472.895 178.034 460.108 200.181C447.321 222.329 443.825 248.631 450.39 273.302C456.954 297.973 473.041 318.992 495.112 331.734L459.086 394.133Z" fill="#779DFF"/>
</svg>
